<?xml version="1.0" encoding="UTF-8"?>
<svg width="16px" height="10px" viewBox="0 0 16 10" version="1.1" xmlns="http://www.w3.org/2000/svg" xmlns:xlink="http://www.w3.org/1999/xlink">
    <!-- Generator: Sketch 53 (72520) - https://sketchapp.com -->
    <title>Details_Icon</title>
    <desc>Created with Sketch.</desc>
    <defs>
        <path d="M14.2503659,8.85856882 L13.7503659,8.85856882 C13.7489893,7.96167695 13.0222578,7.23494548 12.1253659,7.23356882 L12.1253659,6.73356882 C13.2983999,6.73494643 14.2489883,7.68553482 14.2503659,8.85856882 L14.2503659,8.85856882 Z M3.87536594,6.73356882 L3.87536594,7.23356882 C4.7722578,7.23494548 5.49898928,7.96167695 5.50036594,8.85856882 L6.00036594,8.85856882 C5.99898833,7.68553482 5.04839993,6.73494643 3.87536594,6.73356882 L3.87536594,6.73356882 Z M15.5003659,8.81356882 C15.500803,10.5024628 14.2519056,11.9312629 12.5781316,12.1567487 C10.9043576,12.3822344 9.32187863,11.3348689 8.87536594,9.70606882 C8.38168349,9.2487009 7.61904838,9.2487009 7.12536594,9.70606882 C6.6948878,11.2806311 5.19852996,12.3208659 3.57263719,12.175847 C1.94674442,12.0308282 0.658106533,10.7421903 0.513087709,9.11629756 C0.368068884,7.49040479 1.40830367,5.99404695 2.98286594,5.56356882 C2.98286594,5.56356882 3.36286594,5.44106882 3.61036594,5.38856882 L6.41786594,4.81356882 C6.70693572,4.20128338 7.32327303,3.81069247 8.00036594,3.81069247 C8.67745884,3.81069247 9.29379615,4.20128338 9.58286594,4.81356882 L12.3903659,5.38856882 C12.6403659,5.43856882 12.9953659,5.55356882 12.9953659,5.55356882 C14.4743003,5.94452355 15.5034344,7.28383582 15.5003659,8.81356882 Z M6.75036594,5.56356882 C6.75036594,6.25392475 7.31001,6.81356882 8.00036594,6.81356882 C8.69072187,6.81356882 9.25036594,6.25392475 9.25036594,5.56356882 C9.25036594,4.87321288 8.69072187,4.31356882 8.00036594,4.31356882 C7.31001,4.31356882 6.75036594,4.87321288 6.75036594,5.56356882 Z M6.50036594,8.81356882 C6.50036594,7.36382135 5.3251134,6.18856882 3.87536594,6.18856882 C2.42561847,6.18856882 1.25036594,7.36382135 1.25036594,8.81356882 C1.25036594,10.2633163 2.42561847,11.4385688 3.87536594,11.4385688 C4.57155922,11.4385688 5.23923824,11.1620071 5.73152124,10.6697241 C6.22380423,10.1774411 6.50036594,9.5097621 6.50036594,8.81356882 Z M14.7503659,8.81356882 C14.7503659,7.36382135 13.5751134,6.18856882 12.1253659,6.18856882 C10.6756185,6.18856882 9.50036594,7.36382135 9.50036594,8.81356882 C9.50036594,10.2633163 10.6756185,11.4385688 12.1253659,11.4385688 C12.8215592,11.4385688 13.4892382,11.1620071 13.9815212,10.6697241 C14.4738042,10.1774411 14.7503659,9.5097621 14.7503659,8.81356882 L14.7503659,8.81356882 Z" id="path-1"></path>
    </defs>
    <g id="Organism" stroke="none" stroke-width="1" fill="none" fill-rule="evenodd">
        <g id="Button/Secondary/Icon-Specs" transform="translate(0.000000, -3.000000)">
            <g id="Icons/binoculars/solid">
                <mask id="mask-2" fill="white">
                    <use xlink:href="#path-1"></use>
                </mask>
                <use id="binoculars_solid" fill="#000000" fill-rule="nonzero" xlink:href="#path-1"></use>
                <g id="Color/Grey-38" mask="url(#mask-2)" fill="#262626" fill-rule="evenodd">
                    <rect id="colors/dark-grey" x="0" y="0" width="16" height="16"></rect>
                </g>
            </g>
        </g>
    </g>
</svg>