<svg xmlns="http://www.w3.org/2000/svg" viewBox="0 0 64 64">
  <defs>
    <style>.cls-1{fill:none;}</style>
  </defs>
  <title>server</title>
  <g id="Asset">
    <rect class="cls-1" width="64" height="64"/>
  </g>
  <g id="Icons">
    <path
      fill="#00000"
      d="M58,22V8a2,2,0,0,0-2-2H8A2,2,0,0,0,6,8V22a2,2,0,0,0,2,2,2,2,0,0,0-2,2V38a2,2,0,0,0,2,2,2,2,0,0,0-2,2V56a2,2,0,0,0,2,2H56a2,2,0,0,0,2-2V42a2,2,0,0,0-2-2,2,2,0,0,0,2-2V26a2,2,0,0,0-2-2A2,2,0,0,0,58,22ZM55,55H9V41H55Zm0-16H9V25H55Zm0-16H9V9H55ZM13,19.75a1,1,0,0,1-1-1v-5.5a1,1,0,0,1,2,0v5.5A1,1,0,0,1,13,19.75Zm7-1v-5.5a1,1,0,0,0-2,0v5.5a1,1,0,0,0,2,0Zm6,0v-5.5a1,1,0,0,0-2,0v5.5a1,1,0,0,0,2,0Zm6,0v-5.5a1,1,0,0,0-2,0v5.5a1,1,0,0,0,2,0ZM52,16a3,3,0,1,1-3-3A2.95,2.95,0,0,1,52,16ZM14,34.75v-5.5a1,1,0,0,0-2,0v5.5a1,1,0,0,0,2,0Zm6,0v-5.5a1,1,0,0,0-2,0v5.5a1,1,0,0,0,2,0Zm6,0v-5.5a1,1,0,0,0-2,0v5.5a1,1,0,0,0,2,0Zm6,0v-5.5a1,1,0,0,0-2,0v5.5a1,1,0,0,0,2,0ZM52,32a3,3,0,1,1-3-3A2.95,2.95,0,0,1,52,32ZM14,50.75v-5.5a1,1,0,0,0-2,0v5.5a1,1,0,0,0,2,0Zm6,0v-5.5a1,1,0,0,0-2,0v5.5a1,1,0,0,0,2,0Zm6,0v-5.5a1,1,0,0,0-2,0v5.5a1,1,0,0,0,2,0Zm6,0v-5.5a1,1,0,0,0-2,0v5.5a1,1,0,0,0,2,0ZM52,48a3,3,0,1,1-3-3A2.95,2.95,0,0,1,52,48Z"/>
  </g>
</svg>
