<svg xmlns="http://www.w3.org/2000/svg" width="64" height="64" viewBox="0 0 64 64">
  <defs>
    <style>
      .a {
        fill: none;
      }
    </style>
  </defs>
  <title>visible_outline</title>
  <rect class="a" width="64" height="64"/>
  <path d="M61.78,31.24A35,35,0,0,0,32,15,35,35,0,0,0,2.22,31.24a1.5,1.5,0,0,0,0,1.57A35,35,0,0,0,32,49.05,35,35,0,0,0,61.78,32.81,1.5,1.5,0,0,0,61.78,31.24ZM19,32A13,13,0,1,1,32,45,13,13,0,0,1,19,32ZM5.28,32A32.09,32.09,0,0,1,24.9,18.81a15,15,0,0,0,0,26.43A32.09,32.09,0,0,1,5.28,32ZM39.1,45.24a15,15,0,0,0,0-26.42A32.1,32.1,0,0,1,58.72,32,32.09,32.09,0,0,1,39.1,45.24ZM39.1,32a7.08,7.08,0,1,1-13.87-2A3.41,3.41,0,0,0,30,25.24,7.08,7.08,0,0,1,39.09,32Z"/>
</svg>
