<svg xmlns="http://www.w3.org/2000/svg" fill="#262626" width="64" height="64" viewBox="0 0 64 64">
  <defs>
    <style>
      .a {
        fill: none;
      }
    </style>
  </defs>
  <title>cloud-upload_outline</title>
  <rect class="a" width="64" height="64"/>
  <path d="M41.8,33l-8.3-8.3L25.2,33H32V56.5a1.5,1.5,0,0,0,3,0V33Z"/>
  <path d="M53.7,23A17,17,0,0,0,37,9.4a17.16,17.16,0,0,0-14,7.2,8.59,8.59,0,0,0-3.2-.5,9.7,9.7,0,0,0-9.6,8.2,10.2,10.2,0,0,0,2,20.2,15.08,15.08,0,0,0,2.1-.2,19.49,19.49,0,0,0,13.2,5.1,6.6,6.6,0,0,0,1.4-.1v-3c-.5,0-.9.1-1.4.1a16.33,16.33,0,0,1-11.2-4.3l-1.1-1-1.5.3a7.64,7.64,0,0,1-1.5.2,7.17,7.17,0,0,1-1.4-14.2l2-.4.3-2.1a6.86,6.86,0,0,1,6.7-5.7,5.72,5.72,0,0,1,2.2.4l2.1.7,1.3-1.8a14.07,14.07,0,0,1,25.3,5.2l.4,1.9,1.8.5a7.92,7.92,0,0,1-2,15.6H50l-1.4-.1-1,1a7.63,7.63,0,0,1-5.5,2.3,7.85,7.85,0,0,1-3.3-.7l-.8-.7v3.3a11.5,11.5,0,0,0,4.1.8,11,11,0,0,0,7.7-3.2c.4,0,.8.1,1.2.1A10.91,10.91,0,0,0,53.7,23Z"/>
</svg>
