<?xml version="1.0" encoding="UTF-8"?>
<svg width="16px" height="16px" viewBox="0 0 16 16" version="1.1" xmlns="http://www.w3.org/2000/svg" xmlns:xlink="http://www.w3.org/1999/xlink">
    <!-- Generator: sketchtool 53 (72520) - https://sketchapp.com -->
    <title>4A830EB6-E1F7-47B2-8DE8-A17177F0E46A</title>
    <desc>Created with sketchtool.</desc>
    <g id="Organism" stroke="none" stroke-width="1" fill="none" fill-rule="evenodd">
        <g id="DIH/Organism/Lists" transform="translate(-364.000000, -555.000000)">
            <rect fill="#FFFFFF" x="0" y="0" width="1440" height="2931"></rect>
            <g id="Organism/List" transform="translate(228.000000, 456.000000)">
                <g id="Padding-Group" transform="translate(120.000000, 89.000000)">
                    <g id="Icon" transform="translate(16.000000, 10.000000)">
                        <rect id="Background" x="0" y="0" width="16" height="16"></rect>
                        <path d="M10,1 L2.75,1 C2.47385763,1 2.25,1.22385763 2.25,1.5 L2.25,14.5 C2.25,14.7761424 2.47385763,15 2.75,15 L13.25,15 C13.5261424,15 13.75,14.7761424 13.75,14.5 L13.75,4.75 L10,1 Z M10,2.06 L12.69,4.75 L10.25,4.75 C10.1119288,4.75 10,4.63807119 10,4.5 L10,2.06 Z M13,14.25 L3,14.25 L3,1.75 L9.5,1.75 L9.5,4.5 C9.5,4.91421356 9.83578644,5.25 10.25,5.25 L13,5.25 L13,14.25 Z" id="🎨-Icon-Color" fill="#A4A4A4"></path>
                        <g id="Do-not-delete-and-install-the-anima-Plugin!"></g>
                    </g>
                </g>
            </g>
        </g>
    </g>
</svg>