<?xml version="1.0" encoding="utf-8"?>
<!-- Generator: Adobe Illustrator 22.1.0, SVG Export Plug-In . SVG Version: 6.00 Build 0)  -->
<svg version="1.1" id="Ebene_1" xmlns="http://www.w3.org/2000/svg" xmlns:xlink="http://www.w3.org/1999/xlink" x="0px" y="0px"
	 viewBox="0 0 64 64" style="enable-background:new 0 0 64 64;" xml:space="preserve">
<title>Icons/drag-and-drop/outline</title>
<desc>Created with Sketch.</desc>
<g id="Mask">
	<path id="path-1_1_" d="M33,60h6v-2h-6V60z M27,55h-2v4c0,0.6,0.4,1,1,1h4v-2h-3V55z M48,20h-6v2h6V20z M42,58v2h6v-2H42z M54,52h2
		v-6h-2V52z M54,34h2v-6h-2V34z M54.9,20H51v2h3v3h2v-4c0-0.3-0.1-0.5-0.3-0.7C55.5,20.1,55.2,20,54.9,20L54.9,20z M54,58h-3v2h3.9
		c0.6,0,1-0.4,1-1v-4H54V58z M54,43h2v-6h-2V43z M39.7,31.2l-17.9-6.8l6.8,17.9l3.1-6.2l7.1,7.2l1.9-1.8l-7.1-7.3L39.7,31.2z M25,42
		H10V6h17.6v7.9c0,1.2,1,2.1,2.1,2.1H38v12l2,0.9V15L29,4H9.4C8.6,4,8,4.6,8,5.4v37.1c0,0.4,0.1,0.7,0.4,1C8.7,43.8,9,44,9.4,44H26
		L25,42z M29,7l7.7,7.7h-7c-0.4,0-0.7-0.3-0.7-0.7L29,7z M27,52v-6h-2v6H27z"/>
</g>
</svg>
