<?xml version="1.0" encoding="utf-8"?>
<!-- Generator: Adobe Illustrator 22.1.0, SVG Export Plug-In . SVG Version: 6.00 Build 0)  -->
<svg version="1.1" id="Ebene_1" xmlns="http://www.w3.org/2000/svg" xmlns:xlink="http://www.w3.org/1999/xlink" x="0px" y="0px"
	 viewBox="0 0 64 64" fill="#E20074" style="enable-background:new 0 0 64 64;" xml:space="preserve">
<style type="text/css">
	.st0{fill:none;}
</style>
<title>loading_outline</title>
<rect class="st0" width="64" height="64"/>
<path d="M53,12.8c-1.1-1-2.8-1-3.8,0.1c-0.9,1-1,2.5-0.2,3.5c8.5,9.2,8,23.6-1.2,32.1s-23.6,8-32.1-1.2c-8.5-9.2-8-23.6,1.2-32.1
	c3.4-3.2,7.7-5.2,12.4-5.8c1.5-0.1,2.6-1.4,2.5-2.9c-0.1-1.5-1.4-2.6-2.9-2.5c-0.1,0-0.2,0-0.4,0.1C12.9,6.1,2,20.4,4.1,35.9
	S20.5,62.3,36,60.2c15.5-2.1,26.4-16.4,24.3-31.9C59.5,22.5,57,17.1,53,12.8z"/>
</svg>
