<svg xmlns="http://www.w3.org/2000/svg" fill="#262626" width="64" height="64" viewBox="0 0 64 64">
  <defs>
    <style>
      .a {
        fill: none;
      }
    </style>
  </defs>
  <title>calendar_outline</title>
  <rect class="a" width="64" height="64"/>
  <path d="M52,57H12V18H9V58a2,2,0,0,0,2,2H53a2,2,0,0,0,2-2V18H52ZM26.16,45a2.71,2.71,0,0,1-2.71-1.54A6.43,6.43,0,0,1,23,41H19.77v.51a7.16,7.16,0,0,0,.74,3.22A5.73,5.73,0,0,0,26.1,48a6.49,6.49,0,0,0,4.77-1.84,6.76,6.76,0,0,0,1.91-5,6.07,6.07,0,0,0-1.15-3.83,4.65,4.65,0,0,0-2.27-1.62A4.77,4.77,0,0,0,32,31a5.78,5.78,0,0,0-1.52-4.15,5.71,5.71,0,0,0-4.34-1.7,5.39,5.39,0,0,0-4.92,2.56,7.72,7.72,0,0,0-1.06,3.94h3.15q.11-3.56,2.71-3.56a2.56,2.56,0,0,1,1.67.56,3.2,3.2,0,0,1,1,2.61,4.35,4.35,0,0,1-.24,1.47,2.54,2.54,0,0,1-1.2,1.47,6.11,6.11,0,0,1-2.47.35v2.69h1a3.26,3.26,0,0,1,2.43.83,4.18,4.18,0,0,1,1,3.06A4.36,4.36,0,0,1,28.43,44,2.82,2.82,0,0,1,26.16,45ZM53,4H11A2,2,0,0,0,9,6V16H55V6A2,2,0,0,0,53,4Zm-1,9H12V7H52ZM42.62,47.68V25.82H40.09A6.21,6.21,0,0,1,39,28.64a4.35,4.35,0,0,1-3.36,1.25V32.6a9.13,9.13,0,0,0,2-.16,4.36,4.36,0,0,0,1.65-.82V47.68Z"/>
</svg>
