<svg xmlns="http://www.w3.org/2000/svg" fill="#D90000" width="64" height="64" viewBox="0 0 64 64">
  <defs>
    <style>
      .a {
        fill: none;
      }
    </style>
  </defs>
  <title>move-to-trash_outline</title>
  <rect class="a" width="64" height="64"/>
  <path d="M53.5,6H38V5a2,2,0,0,0-2-2H28a2,2,0,0,0-2,2V6H10.5a1.5,1.5,0,0,0,0,3h43a1.5,1.5,0,0,0,0-3ZM47.6,56.44A.61.61,0,0,1,47,57H16.82a.61.61,0,0,1-.58-.56L14.46,12h-3l1.77,44.56A3.62,3.62,0,0,0,16.82,60H47a3.62,3.62,0,0,0,3.58-3.44L52.37,12h-3ZM25,48V20a1,1,0,0,0-2,0V48a1,1,0,0,0,2,0Zm8,0V20a1,1,0,0,0-2,0V48a1,1,0,1,0,2,0Zm8,0V20a1,1,0,0,0-2,0V48a1,1,0,0,0,2,0Z"/>
</svg>
