<?xml version="1.0" encoding="UTF-8"?>
<svg width="15px" height="12px" viewBox="0 0 15 12" version="1.1" xmlns="http://www.w3.org/2000/svg" xmlns:xlink="http://www.w3.org/1999/xlink">
  <!-- Generator: Sketch 49.2 (51160) - http://www.bohemiancoding.com/sketch -->
  <title>Icon / Print</title>
  <desc>Created with Sketch.</desc>
  <defs></defs>
  <g id="Icon-/-Print" stroke="none" stroke-width="1" fill="none" fill-rule="evenodd">
    <path d="M12.4951172,2.99511719 L2.50488281,2.99511719 L2.50488281,0.915039062 C2.50488281,0.788085303 2.54150354,0.687988647 2.61474609,0.614746094 C2.68798865,0.54150354 2.7880853,0.504882812 2.91503906,0.504882812 L12.0849609,0.504882812 C12.2119147,0.504882812 12.3120114,0.54150354 12.3852539,0.614746094 C12.4584965,0.687988647 12.4951172,0.788085303 12.4951172,0.915039062 L12.4951172,2.99511719 Z M4.16015625,10.9199219 L4.16015625,8.00488281 L10.8398438,8.00488281 L10.8398438,10.9199219 C10.8398438,11.03711 10.7983403,11.1347652 10.715332,11.2128906 C10.6323238,11.291016 10.5322271,11.3300781 10.4150391,11.3300781 L4.58496094,11.3300781 C4.46777285,11.3300781 4.3676762,11.291016 4.28466797,11.2128906 C4.20165974,11.1347652 4.16015625,11.03711 4.16015625,10.9199219 Z M1.24511719,3.83007812 L13.7548828,3.83007812 C13.8720709,3.83007812 13.9697262,3.86914023 14.0478516,3.94726562 C14.125977,4.02539102 14.1650391,4.12792905 14.1650391,4.25488281 L14.1650391,9.25 C14.1650391,9.37695376 14.125977,9.47705042 14.0478516,9.55029297 C13.9697262,9.62353552 13.8720709,9.66015625 13.7548828,9.66015625 L11.6601562,9.66015625 L11.6601562,8.00488281 L12.4951172,8.00488281 L12.4951172,7.16992188 L2.50488281,7.16992188 L2.50488281,8.00488281 L3.33984375,8.00488281 L3.33984375,9.66015625 L1.24511719,9.66015625 C1.1279291,9.66015625 1.03027383,9.62353552 0.952148438,9.55029297 C0.874023047,9.47705042 0.834960938,9.37695376 0.834960938,9.25 L0.834960938,4.25488281 C0.834960938,4.12792905 0.874023047,4.02539102 0.952148438,3.94726562 C1.03027383,3.86914023 1.1279291,3.83007812 1.24511719,3.83007812 Z M11.6601562,5.92480469 C11.6601562,6.04199277 11.6992184,6.13964805 11.7773438,6.21777344 C11.8554691,6.29589883 11.9580072,6.33496094 12.0849609,6.33496094 C12.2119147,6.33496094 12.3120114,6.29589883 12.3852539,6.21777344 C12.4584965,6.13964805 12.4951172,6.03955139 12.4951172,5.91748047 C12.4951172,5.79540955 12.4584965,5.69531289 12.3852539,5.6171875 C12.3120114,5.53906211 12.2119147,5.5 12.0849609,5.5 C11.9580072,5.5 11.8554691,5.53906211 11.7773438,5.6171875 C11.6992184,5.69531289 11.6601562,5.79785093 11.6601562,5.92480469 Z" id="p" fill="#383838"></path>
  </g>
</svg>
