<?xml version="1.0" encoding="UTF-8"?>
<svg width="14px" height="14px" viewBox="0 0 14 14" version="1.1" xmlns="http://www.w3.org/2000/svg" xmlns:xlink="http://www.w3.org/1999/xlink">
  <!-- Generator: Sketch 49.2 (51160) - http://www.bohemiancoding.com/sketch -->
  <title>Icon / Share</title>
  <desc>Created with Sketch.</desc>
  <defs></defs>
  <g id="Icon-/-Share" stroke="none" stroke-width="1" fill="none" fill-rule="evenodd">
    <path d="M9.16992188,0.669921875 L13.3300781,4.83007812 L9.16992188,9.00488281 L9.16992188,5.66503906 L8.74511719,5.66503906 C7.91503491,5.66503906 7.12158582,5.83593579 6.36474609,6.17773438 C5.60790637,6.51953296 4.94385051,6.97607136 4.37255859,7.54736328 C3.80126667,8.1186552 3.34716965,8.78271106 3.01025391,9.53955078 C2.67333816,10.2963905 2.50488281,11.0898396 2.50488281,11.9199219 L2.50488281,12.7841797 C2.50488281,13.0185559 2.42187583,13.2187492 2.25585938,13.3847656 C2.08984292,13.5507821 1.89209099,13.6337891 1.66259766,13.6337891 C1.43310432,13.6337891 1.23779377,13.5507821 1.07666016,13.3847656 C0.915526538,13.2187492 0.834960938,13.0185559 0.834960938,12.7841797 L0.834960938,11.9199219 C0.834960938,10.8456978 1.04491978,9.83008291 1.46484375,8.87304688 C1.88476772,7.91601084 2.45605107,7.07617549 3.17871094,6.35351562 C3.9013708,5.63085576 4.74120615,5.05713103 5.69824219,4.63232422 C6.65527822,4.20751741 7.67089307,3.99511719 8.74511719,3.99511719 L9.16992188,3.99511719 L9.16992188,0.669921875 Z" id="w" fill="#383838"></path>
  </g>
</svg>
